<svg width="25" height="22" viewBox="0 0 25 22" fill="none" xmlns="http://www.w3.org/2000/svg">
<path d="M2.56593 15.9098H10.8895C11.2365 15.9098 11.5188 16.1921 11.5188 16.539C11.5188 16.8859 11.2365 17.1681 10.8895 17.1681H9.38571C8.24659 17.1681 7.31978 18.0947 7.31978 19.2336C7.31978 20.3725 8.24659 21.2992 9.38571 21.2992H22.4341C23.5732 21.2992 24.5 20.3726 24.5 19.2336C24.5 18.0947 23.5732 17.1681 22.4341 17.1681H15.3739C15.0269 17.1681 14.7446 16.8859 14.7446 16.539C14.7446 16.1921 15.0269 15.9098 15.3739 15.9098H15.6143C16.7535 15.9098 17.6803 14.9832 17.6803 13.8443C17.6803 12.7053 16.7535 11.7787 15.6143 11.7787H12.363C12.0159 11.7787 11.7336 11.4965 11.7336 11.1496C11.7336 10.8026 12.0159 10.5204 12.363 10.5204H20.1608C21.3 10.5204 22.2268 9.5938 22.2268 8.45485C22.2268 7.31589 21.3 6.38936 20.1608 6.38936H16.3987C16.0517 6.38936 15.7693 6.1071 15.7693 5.7602C15.7693 5.41329 16.0517 5.13103 16.3987 5.13103H16.4452C17.5843 5.13103 18.5111 4.20445 18.5111 3.06554C18.5111 1.92664 17.5843 1 16.4452 1H3.39682C2.25769 1 1.33088 1.92659 1.33088 3.06554C1.33088 4.2045 2.25769 5.13103 3.39682 5.13103H11.4335C11.7805 5.13103 12.0628 5.41329 12.0628 5.7602C12.0628 6.1071 11.7805 6.38936 11.4335 6.38936H7.11243C5.97331 6.38936 5.0465 7.31594 5.0465 8.4549C5.0465 9.59386 5.97331 10.5204 7.11243 10.5204H7.39773C7.74474 10.5204 8.02705 10.8026 8.02705 11.1496C8.02705 11.4965 7.74474 11.7787 7.39773 11.7787H2.56593C1.42681 11.7787 0.5 12.7053 0.5 13.8443C0.5 14.9832 1.42681 15.9098 2.56593 15.9098ZM2.56593 12.4406H7.39773C8.10974 12.4406 8.68898 11.8615 8.68898 11.1496C8.68898 10.4377 8.10974 9.85846 7.39773 9.85846H7.11243C6.33825 9.85846 5.70843 9.22881 5.70843 8.45485C5.70843 7.68089 6.33825 7.05128 7.11243 7.05128H11.4335C12.1455 7.05128 12.7248 6.4721 12.7248 5.7602C12.7248 5.04829 12.1455 4.46911 11.4335 4.46911H3.39682C2.62264 4.46911 1.99281 3.83945 1.99281 3.06554C1.99281 2.29164 2.62264 1.66193 3.39682 1.66193H16.4452C17.2193 1.66193 17.8492 2.29159 17.8492 3.06554C17.8492 3.8395 17.2193 4.46911 16.4452 4.46911H16.3987C15.6867 4.46911 15.1074 5.04829 15.1074 5.7602C15.1074 6.4721 15.6867 7.05128 16.3987 7.05128H20.1608C20.935 7.05128 21.5648 7.68094 21.5648 8.4549C21.5648 9.22886 20.935 9.85846 20.1608 9.85846H12.363C11.6509 9.85846 11.0716 10.4377 11.0716 11.1496C11.0716 11.8615 11.6509 12.4406 12.363 12.4406H15.6143C16.3885 12.4406 17.0183 13.0703 17.0183 13.8443C17.0183 14.6182 16.3885 15.2479 15.6143 15.2479H15.3739C14.6619 15.2479 14.0826 15.8271 14.0826 16.539C14.0826 17.2509 14.6619 17.8301 15.3739 17.8301H22.4341C23.2083 17.8301 23.8381 18.4597 23.8381 19.2336C23.8381 20.0075 23.2083 20.6372 22.4341 20.6372H9.38571C8.61154 20.6372 7.98171 20.0076 7.98171 19.2336C7.98171 18.4597 8.61154 17.8301 9.38571 17.8301H10.8895C11.6015 17.8301 12.1808 17.2509 12.1808 16.539C12.1808 15.8271 11.6015 15.2479 10.8895 15.2479H2.56593C1.79175 15.2479 1.16193 14.6182 1.16193 13.8443C1.16193 13.0703 1.79175 12.4407 2.56593 12.4407V12.4406Z" fill="white" stroke="white" stroke-width="0.2"/>
</svg>
