<svg width="18" height="9" viewBox="0 0 18 9" fill="none" xmlns="http://www.w3.org/2000/svg">
<path d="M9 8.56015C8.56212 8.56093 8.12837 8.4754 7.72357 8.30845C7.31876 8.14149 6.95083 7.89639 6.6408 7.58715L1.19599 2.14234C1.0705 2.01685 1 1.84664 1 1.66917C1 1.49169 1.0705 1.32149 1.19599 1.19599C1.32149 1.0705 1.49169 1 1.66917 1C1.84664 1 2.01685 1.0705 2.14234 1.19599L7.58715 6.64081C7.96202 7.01521 8.47018 7.22551 9 7.22551C9.52982 7.22551 10.038 7.01521 10.4129 6.64081L15.8577 1.19599C15.9832 1.0705 16.1534 1 16.3308 1C16.5083 1 16.6785 1.0705 16.804 1.19599C16.9295 1.32149 17 1.49169 17 1.66917C17 1.84664 16.9295 2.01685 16.804 2.14234L11.3592 7.58715C11.0492 7.89639 10.6812 8.14149 10.2764 8.30845C9.87163 8.4754 9.43788 8.56093 9 8.56015Z" fill="#0F0F1A" stroke="#0F0F1A" stroke-width="0.6"/>
</svg>
