<svg width="20" height="11" viewBox="0 0 20 11" fill="none" xmlns="http://www.w3.org/2000/svg">
<path d="M10 9.99999C9.50738 10.0009 9.01942 9.8991 8.56401 9.70035C8.1086 9.5016 7.69468 9.20982 7.3459 8.84168L1.22049 2.3599C1.07931 2.21051 1 2.00788 1 1.79661C1 1.58534 1.07931 1.38272 1.22049 1.23332C1.36167 1.08393 1.55315 1 1.75281 1C1.95247 1 2.14395 1.08393 2.28513 1.23332L8.41054 7.71511C8.83227 8.16082 9.40395 8.41117 10 8.41117C10.596 8.41117 11.1677 8.16082 11.5895 7.71511L17.7149 1.23332C17.856 1.08393 18.0475 1 18.2472 1C18.4468 1 18.6383 1.08393 18.7795 1.23332C18.9207 1.38272 19 1.58534 19 1.79661C19 2.00788 18.9207 2.21051 18.7795 2.3599L12.6541 8.84168C12.3053 9.20982 11.8914 9.5016 11.436 9.70035C10.9806 9.8991 10.4926 10.0009 10 9.99999Z" fill="#0F0F1A" stroke="#0F0F1A" stroke-width="0.7"/>
</svg>
