<svg width="24" height="24" viewBox="0 0 24 24" fill="none" xmlns="http://www.w3.org/2000/svg">
<path fill-rule="evenodd" clip-rule="evenodd" d="M12.6629 0.742194L16.352 4.43124C16.7166 4.79583 16.7166 5.39246 16.352 5.75705L12.6629 9.4461C12.2983 9.81069 11.7017 9.81069 11.3371 9.4461L7.64806 5.75705C7.28347 5.39246 7.28347 4.79583 7.64806 4.43124L11.3371 0.742194C11.7017 0.377602 12.2983 0.377602 12.6629 0.742194ZM0.742229 11.3371L4.43128 7.64803C4.79587 7.28343 5.39249 7.28343 5.75708 7.64803L9.44613 11.3371C9.81072 11.7017 9.81072 12.2983 9.44613 12.6629L5.75708 16.3519C5.39249 16.7165 4.79587 16.7165 4.43128 16.3519L0.742229 12.6629C0.37759 12.2983 0.37759 11.7017 0.742229 11.3371ZM11.3371 23.2578L7.64806 19.5687C7.28347 19.2041 7.28347 18.6075 7.64806 18.2429L11.3371 14.5539C11.7017 14.1893 12.2983 14.1893 12.6629 14.5539L16.352 18.2429C16.7166 18.6075 16.7166 19.2041 16.352 19.5687L12.6629 23.2578C12.2983 23.6224 11.7017 23.6224 11.3371 23.2578ZM23.2578 12.6629L19.5687 16.3519C19.2042 16.7165 18.6075 16.7165 18.2429 16.3519L14.5539 12.6629C14.1893 12.2983 14.1893 11.7017 14.5539 11.3371L18.2429 7.64803C18.6075 7.28343 19.2042 7.28343 19.5687 7.64803L23.2578 11.3371C23.6224 11.7017 23.6224 12.2983 23.2578 12.6629Z" stroke="#014EFF" stroke-miterlimit="22.9256" stroke-linecap="round" stroke-linejoin="round"/>
</svg>
